<svg width="917" height="704">
<rect x="406" y="20" width="202" height="144" style="fill:blue;stroke:pink;stroke-width:5;opacity:0.5" /><rect x="330" y="340" width="222" height="112" style="fill:blue;stroke:pink;stroke-width:5;opacity:0.5" /><rect x="463" y="228" width="145" height="112" style="fill:blue;stroke:pink;stroke-width:5;opacity:0.5" /><rect x="608" y="20" width="166" height="192" style="fill:blue;stroke:pink;stroke-width:5;opacity:0.5" /><rect x="608" y="212" width="166" height="128" style="fill:blue;stroke:pink;stroke-width:5;opacity:0.5" /><rect x="760" y="356" width="187" height="160" style="fill:blue;stroke:pink;stroke-width:5;opacity:0.5" /><rect x="283" y="164" width="180" height="160" style="fill:blue;stroke:pink;stroke-width:5;opacity:0.5" /><rect x="552" y="340" width="208" height="176" style="fill:blue;stroke:pink;stroke-width:5;opacity:0.5" /><rect x="345" y="516" width="208" height="160" style="fill:blue;stroke:pink;stroke-width:5;opacity:0.5" /><rect x="566" y="516" width="187" height="144" style="fill:blue;stroke:pink;stroke-width:5;opacity:0.5" /><rect x="774" y="196" width="173" height="160" style="fill:blue;stroke:pink;stroke-width:5;opacity:0.5" /><rect x="753" y="516" width="187" height="208" style="fill:blue;stroke:pink;stroke-width:5;opacity:0.5" /><rect x="103" y="163" width="180" height="128" style="fill:blue;stroke:pink;stroke-width:5;opacity:0.5" /><rect x="30" y="291" width="185" height="160" style="fill:blue;stroke:pink;stroke-width:5;opacity:0.5" /><rect x="31" y="451" width="215" height="176" style="fill:blue;stroke:pink;stroke-width:5;opacity:0.5" /></svg>